<svg enable-background="new 0 0 58 54" height="512" viewBox="0 0 58 54" width="512" xmlns="http://www.w3.org/2000/svg"><circle cx="35" cy="17" fill="#ebba16" r="17"/><g fill="#dc691d"><path d="m22 18c-.552 0-1-.448-1-1 0-7.72 6.28-14 14-14 .552 0 1 .448 1 1s-.448 1-1 1c-6.617 0-12 5.383-12 12 0 .552-.448 1-1 1z"/><path d="m35 31c-.552 0-1-.448-1-1s.448-1 1-1c6.617 0 12-5.383 12-12 0-.552.448-1 1-1s1 .448 1 1c0 7.72-6.28 14-14 14z"/><path d="m37 18h-6c-.552 0-1-.448-1-1v-6c0-.552.448-1 1-1h6c2.206 0 4 1.794 4 4s-1.794 4-4 4zm-5-2h5c1.103 0 2-.897 2-2s-.897-2-2-2h-5z"/><path d="m37 24h-6c-.552 0-1-.448-1-1v-6c0-.552.448-1 1-1h6c2.206 0 4 1.794 4 4s-1.794 4-4 4zm-5-2h5c1.103 0 2-.897 2-2s-.897-2-2-2h-5z"/><path d="m33 12c-.552 0-1-.448-1-1v-3c0-.552.448-1 1-1s1 .448 1 1v3c0 .552-.448 1-1 1z"/><path d="m37 12c-.552 0-1-.448-1-1v-3c0-.552.448-1 1-1s1 .448 1 1v3c0 .552-.448 1-1 1z"/><path d="m33 27c-.552 0-1-.448-1-1v-3c0-.552.448-1 1-1s1 .448 1 1v3c0 .552-.448 1-1 1z"/><path d="m37 27c-.552 0-1-.448-1-1v-3c0-.552.448-1 1-1s1 .448 1 1v3c0 .552-.448 1-1 1z"/><path d="m31 12h-2c-.552 0-1-.448-1-1s.448-1 1-1h2c.552 0 1 .448 1 1s-.448 1-1 1z"/><path d="m31 24h-2c-.552 0-1-.448-1-1s.448-1 1-1h2c.552 0 1 .448 1 1s-.448 1-1 1z"/></g><path d="m57.934 43.629c-.7-2.094-4.153-2.191-5.876-1.419-2.348 1.052-5.003 1.264-7.559 1.41-1.091.062-2.181.144-3.271.234-.836.069-1.666.206-2.504.252-.147.008-.475.077-.608.017-.233-.104-.112-.032-.168-.289-.135-.619-.217-1.277-.452-1.871-.288-.726-.86-1.272-1.649-1.49-1.151-.318-2.416-.29-3.59-.115-1.302.194-2.459.77-3.736 1.048-2.135.464-4.395-.076-6.329-.959-.978-.446-1.905-.996-2.756-1.634-.895-.671-1.698-1.442-2.716-1.953-.706-.354-1.461-.629-2.248-.768-1.211-.214-2.454-.039-3.561.469-1.366.625-2.296 1.866-3.688 2.461-1.26.538-2.629.818-3.926 1.264-.768.262-2.527 1.456-3.297 1.714v12c3.538-1.48 9.421-2.782 13.278-3.204 2.018-.22 4.056-.118 6.064.14 1.982.254 3.982.882 5.959 1.005 1.618.101 3.454.266 5.06.044 1.745-.241 3.34-1.037 4.99-1.583 1.61-.532 3.306-.827 5.01-.877 1.789-.052 3.414.16 5.195-.193.897-.178 1.745-.588 2.608-.887 1.698-.588 3.396-1.175 5.094-1.763 1.218-.422 2.436-.843 3.657-1.258.75-.255 1.276-1.025 1.019-1.795z" fill="#fbce9d"/><path d="m28.568 47.743c-1.862 0-3.728-.111-5.567-.332-2.337-.281-5.348-.794-7.905-2.274-.478-.276-.641-.888-.365-1.366.277-.478.889-.643 1.367-.364 2.242 1.297 4.995 1.761 7.142 2.019 2.287.275 4.619.371 6.927.29l.175-.007c1.949-.069 3.964-.143 5.546-1.057.559-.323 1.06-.727 1.487-1.199.371-.408 1.003-.442 1.413-.07.409.37.44 1.003.07 1.412-.567.627-1.23 1.161-1.969 1.589-2.013 1.164-4.384 1.249-6.475 1.324l-.175.006c-.556.019-1.113.029-1.671.029z" fill="#ea7f5f"/></svg>