<svg height="512pt" viewBox="-1 0 512 512" width="512pt" xmlns="http://www.w3.org/2000/svg"><path d="m145 512c-24.8125 0-45-20.1875-45-45v-60c0-24.8125 20.1875-45 45-45s45 20.1875 45 45c0 8.285156-6.714844 15-15 15s-15-6.714844-15-15c0-8.269531-6.730469-15-15-15s-15 6.730469-15 15v60c0 8.269531 6.730469 15 15 15s15-6.730469 15-15c0-8.285156 6.714844-15 15-15s15 6.714844 15 15c0 24.8125-20.1875 45-45 45zm0 0" fill="#39647c"/><path d="m255 512c-24.8125 0-45-20.1875-45-45v-60c0-24.8125 20.1875-45 45-45s45 20.1875 45 45v60c0 24.8125-20.1875 45-45 45zm0-120c-8.269531 0-15 6.730469-15 15v60c0 8.269531 6.730469 15 15 15s15-6.730469 15-15v-60c0-8.269531-6.730469-15-15-15zm0 0" fill="#39647c"/><path d="m385 512h-50c-8.285156 0-15-6.714844-15-15 0-11.40625 6.078125-22.140625 15.859375-28.007812l28.5625-17.136719c3.441406-2.066407 5.578125-5.839844 5.578125-9.855469 0-5.515625-4.484375-10-10-10s-10 4.484375-10 10v5c0 8.285156-6.714844 15-15 15s-15-6.714844-15-15v-5c0-22.054688 17.945312-40 40-40 22.058594 0 40.003906 17.945312 40.003906 40 0 14.492188-7.722656 28.125-20.148437 35.578125l-7.367188 4.421875h12.511719c8.285156 0 15 6.714844 15 15s-6.714844 15-15 15zm0 0" fill="#2d5064"/><path d="m415 330h-320c-52.382812 0-95-42.617188-95-95 0-47.355469 34.828125-86.726562 80.214844-93.851562-.144532-2.058594-.214844-4.109376-.214844-6.148438 0-52.382812 42.617188-95 95-95 15.769531 0 30.894531 3.792969 44.515625 11.082031 8.6875-12.992187 19.953125-24.125 33.179687-32.695312 18.5625-12.027344 40.105469-18.386719 62.304688-18.386719 63.410156 0 115 51.589844 115 115 0 8.738281-.980469 17.347656-2.929688 25.761719 46.703126 5.953125 82.929688 45.945312 82.929688 94.238281 0 52.382812-42.617188 95-95 95zm0 0" fill="#7290a1"/><path d="m427.070312 140.761719c1.949219-8.414063 2.929688-17.023438 2.929688-25.761719 0-63.410156-51.589844-115-115-115-21.289062 0-41.96875 5.863281-60 16.953125v313.046875h160c52.382812 0 95-42.617188 95-95 0-48.292969-36.226562-88.285156-82.929688-94.238281zm0 0" fill="#557a8f"/><path d="m255 362v30c8.269531 0 15 6.730469 15 15v60c0 8.269531-6.730469 15-15 15v30c24.8125 0 45-20.1875 45-45v-60c0-24.8125-20.1875-45-45-45zm0 0" fill="#2d5064"/></svg>